C:/Program Files/Krita (x64)/bin/ffmpeg.exe -hide_banner -y -y -r 15 -start_number 0 -start_number_range 1 -i D:/SOFT/images/home/frame%04d.png -f apng -pred none -plays 0 D:/SOFT/images/home/Group_krita.apng
=====================================================
Input #0, image2, from 'D:/SOFT/images/home/frame%04d.png':
  Duration: 00:00:00.80, start: 0.000000, bitrate: N/A
  Stream #0:0: Video: png, rgba(pc), 500x500 [SAR 2834:2834 DAR 1:1], 25 fps, 25 tbr, 25 tbn, 25 tbc
Stream mapping:
  Stream #0:0 -> #0:0 (png (native) -> apng (native))
Press [q] to stop, [?] for help
Output #0, apng, to 'D:/SOFT/images/home/Group_krita.apng':
  Metadata:
    encoder         : Lavf58.76.100
  Stream #0:0: Video: apng, rgba(pc, progressive), 500x500 [SAR 2834:2834 DAR 1:1], q=2-31, 200 kb/s, 15 fps, 15 tbn
    Metadata:
      encoder         : Lavc58.134.100 apng
frame=    1 fps=0.0 q=0.0 size=       0kB time=00:00:00.00 bitrate=N/A speed=   0x    frame=   13 fps=0.0 q=-0.0 size=     256kB time=00:00:00.80 bitrate=2621.4kbits/s speed=1.53x    frame=   20 fps=0.0 q=-0.0 Lsize=     564kB time=00:00:01.33 bitrate=3462.2kbits/s speed=1.69x    
video:563kB audio:0kB subtitle:0kB other streams:0kB global headers:0kB muxing overhead: 0.014906%
